<?xml version="1.0" encoding="UTF-8"?>
<svg version="1.1" xmlns="http://www.w3.org/2000/svg" width="512" height="512">
<path d="M0 0 C0.85318817 -0.00705963 1.70637634 -0.01411926 2.5854187 -0.02139282 C77.10840066 -0.49773209 141.93400892 24.37292576 195.40820312 76.76318359 C201.95468346 83.24602665 208.09715361 89.85715531 213.6796875 97.203125 C214.09637695 97.74340332 214.51306641 98.28368164 214.94238281 98.84033203 C239.44053457 130.7093719 255.93158688 167.26127283 263.9921875 206.640625 C264.13954346 207.35951904 264.28689941 208.07841309 264.4387207 208.8190918 C267.41257838 224.46538109 268.05269112 239.93880546 267.9921875 255.828125 C267.99003235 256.84603119 267.9878772 257.86393738 267.98565674 258.91268921 C267.93598604 273.52176023 267.68508941 287.85388353 264.6796875 302.203125 C264.38167236 303.66540527 264.38167236 303.66540527 264.07763672 305.15722656 C253.82606976 354.16509198 231.48686098 398.16926699 196.6796875 434.203125 C196.08075684 434.82396973 195.48182617 435.44481445 194.86474609 436.08447266 C187.20318564 443.98329434 179.47774168 451.55923357 170.6796875 458.203125 C170.06351562 458.67395508 169.44734375 459.14478516 168.8125 459.62988281 C127.53532743 491.00290621 75.74838291 512.11473671 23.359375 512.40625 C22.50618683 512.41330963 21.65299866 512.42036926 20.7739563 512.42764282 C-53.74902566 512.90398209 -118.57463392 488.03332424 -172.04882812 435.64306641 C-178.59530846 429.16022335 -184.73777861 422.54909469 -190.3203125 415.203125 C-190.73700195 414.66284668 -191.15369141 414.12256836 -191.58300781 413.56591797 C-216.08115957 381.6968781 -232.57221188 345.14497717 -240.6328125 305.765625 C-240.78016846 305.04673096 -240.92752441 304.32783691 -241.0793457 303.5871582 C-244.05320338 287.94086891 -244.69331612 272.46744454 -244.6328125 256.578125 C-244.63065735 255.56021881 -244.6285022 254.54231262 -244.62628174 253.49356079 C-244.57661104 238.88448977 -244.32571441 224.55236647 -241.3203125 210.203125 C-241.12163574 209.22827148 -240.92295898 208.25341797 -240.71826172 207.24902344 C-230.45672891 158.19351603 -208.09543449 114.30624899 -173.3203125 78.203125 C-172.73733398 77.59291504 -172.15435547 76.98270508 -171.55371094 76.35400391 C-163.56354087 68.02577182 -155.36333998 60.3934836 -146.08837891 53.51806641 C-144.28088891 52.173805 -142.49357638 50.80553373 -140.70703125 49.43359375 C-126.88865364 38.93089321 -111.94697821 30.68420968 -96.3203125 23.203125 C-95.40378906 22.75453125 -94.48726562 22.3059375 -93.54296875 21.84375 C-64.87725425 8.2396821 -31.76289879 0.17674141 0 0 Z " fill="#FF8800" transform="translate(244.3203125,-0.203125)"/>
<path d="M0 0 C8.02389184 0.59752386 15.98881061 2.57640333 23.8125 4.375 C24.69518555 4.57174316 25.57787109 4.76848633 26.48730469 4.97119141 C32.50693898 6.39737123 39.0417297 8.04126058 43.53955078 12.53979492 C45.74149645 14.74137249 48.31564439 15.54493379 51.1875 16.6875 C52.27417969 17.12449219 53.36085937 17.56148437 54.48046875 18.01171875 C55.72763672 18.50091797 55.72763672 18.50091797 57 19 C57 18.34 57 17.68 57 17 C58.8871875 16.938125 58.8871875 16.938125 60.8125 16.875 C61.87404297 16.84019531 61.87404297 16.84019531 62.95703125 16.8046875 C65 17 65 17 68 19 C68.32905461 21.50646605 68.43932756 23.70209424 68.39453125 26.2109375 C68.38686234 26.9583017 68.37919342 27.70566589 68.37129211 28.47567749 C68.11554041 38.63852087 66.34373336 48.61613168 64.6875 58.625 C64.37451227 60.58836047 64.06265846 62.55190204 63.75195312 64.515625 C62.27485817 73.76430554 60.67821743 82.96938284 58.78833008 92.14306641 C57.29246225 99.46165417 55.91734946 106.80406768 54.52050781 114.14208984 C54.00199668 116.86451648 53.48152044 119.58656263 52.9609375 122.30859375 C51.11416177 131.98821377 49.32885292 141.67540047 47.63427734 151.3828125 C46.89200233 155.61589434 46.11139474 159.83977066 45.3125 164.0625 C45.11817383 165.09213867 45.11817383 165.09213867 44.91992188 166.14257812 C44.61417799 167.76188832 44.30724453 169.38097386 44 171 C44.6084375 170.319375 45.216875 169.63875 45.84375 168.9375 C69.50626662 142.76954045 69.50626662 142.76954045 82 135 C82.804375 134.46632812 83.60875 133.93265625 84.4375 133.3828125 C96.45976046 126.25422857 111.85850216 132.18443927 124.49511719 135.34472656 C136.87487969 138.58325313 136.87487969 138.58325313 142 142 C142 142.66 142 143.32 142 144 C142.78761719 144.09796875 143.57523438 144.1959375 144.38671875 144.296875 C167.68928439 147.49580709 167.68928439 147.49580709 175.5078125 156.79296875 C186.13488104 171.02469622 187.23134898 190.11149066 188.1875 207.1875 C188.25245667 208.32125061 188.25245667 208.32125061 188.31872559 209.47790527 C189.67832896 234.01611919 188.13699644 258.39297781 186.4765625 282.87890625 C185.41306148 298.62914782 184.87856332 314.34801111 184.76983643 330.13302612 C184.75679442 331.81253505 184.73898886 333.49201496 184.71600342 335.17141724 C184.59274857 344.85956448 184.85615431 353.7047736 188 363 C188.22848633 363.67732178 188.45697266 364.35464355 188.69238281 365.05249023 C189.50795307 367.04660711 189.50795307 367.04660711 192 369 C194.81909714 369.31371715 197.42044651 369.2514231 200.24609375 369.015625 C203.30178085 368.99828777 205.25799144 369.70613026 208 371 C208 373.31 208 375.62 208 378 C206.68 378 205.36 378 204 378 C204.1071936 379.10952026 204.1071936 379.10952026 204.21655273 380.24145508 C203.94299065 383.72621044 202.96246761 384.67524065 200.53515625 387.13671875 C199.81779297 387.87857422 199.10042969 388.62042969 198.36132812 389.38476562 C197.60271484 390.14466797 196.84410156 390.90457031 196.0625 391.6875 C194.5725114 393.21057119 193.0841466 394.73523314 191.59765625 396.26171875 C190.93258057 396.93162842 190.26750488 397.60153809 189.58227539 398.29174805 C186.89188135 401.19634411 186.89848901 403.14258257 187 407 C168.49784137 411.85302521 153.77018615 405.25211404 137.375 397.125 C136.15663412 396.53176255 134.93788385 395.93931389 133.71875 395.34765625 C104.40327375 381.05345683 104.40327375 381.05345683 99 369 C98.57382547 366.66190487 98.32088821 364.38708739 98.17578125 362.015625 C98.06084643 359.7948545 98.06084643 359.7948545 97 357 C96.87750999 354.35570046 96.8120454 351.73903818 96.796875 349.09375 C96.79004196 348.28332748 96.78320892 347.47290497 96.77616882 346.63792419 C96.75876787 343.92524161 96.75279127 341.21273573 96.75 338.5 C96.74699387 337.08244919 96.74699387 337.08244919 96.743927 335.63626099 C96.73540834 318.9617657 97.54899664 302.40058696 98.64675903 285.76669312 C100.2387545 261.52358058 100.71608798 237.28937888 101 213 C98.05683515 215.77695693 95.81260512 218.57342631 93.63671875 221.98046875 C93.00475586 222.96684326 92.37279297 223.95321777 91.72167969 224.96948242 C91.05040039 226.03142822 90.37912109 227.09337402 89.6875 228.1875 C88.98399414 229.29520752 88.28048828 230.40291504 87.55566406 231.54418945 C75.67612993 250.30453297 64.34999696 269.35052897 54 289 C53.3205835 290.27496338 53.3205835 290.27496338 52.62744141 291.57568359 C39.93765351 315.50877871 30.57329487 340.98019861 21.31298828 366.3894043 C14.00290181 386.42539035 14.00290181 386.42539035 8.0625 392.9375 C2.65523937 398.99541913 -2.02044021 405.45898472 -6.58374023 412.17163086 C-7.10137939 412.91421143 -7.61901855 413.65679199 -8.15234375 414.421875 C-8.8328479 415.42105957 -8.8328479 415.42105957 -9.52709961 416.44042969 C-12.20649224 419.2774859 -15.05623106 419.00303179 -18.83984375 419.20703125 C-22.81010534 419.1456685 -25.87753046 418.23196775 -29.5625 416.6875 C-30.49147095 416.29860596 -30.49147095 416.29860596 -31.43920898 415.90185547 C-71.56371137 398.76700843 -71.56371137 398.76700843 -78 391 C-78.37528992 389.12896729 -78.37528992 389.12896729 -78.36987305 387.00878906 C-78.37171097 386.21543152 -78.37354889 385.42207397 -78.3754425 384.60467529 C-78.35853867 383.7502887 -78.34163483 382.8959021 -78.32421875 382.015625 C-78.31428391 381.12433899 -78.30434906 380.23305298 -78.29411316 379.3147583 C-78.11205819 370.03961216 -77.06241785 360.9323277 -75.8125 351.75 C-75.58190287 349.99307147 -75.35185179 348.2360712 -75.12231445 346.47900391 C-73.12769851 331.3688742 -70.8934291 316.29845955 -68.37896729 301.26599121 C-68.11763634 299.70339292 -67.85723511 298.14063895 -67.59759521 296.57775879 C-62.64946323 266.79700218 -56.97631016 237.18001333 -51.08886719 207.57226562 C-48.622239 195.1433333 -46.24912777 182.69686197 -43.875 170.25 C-40.99543417 155.15587832 -38.01378417 140.08949988 -34.88122559 125.04586792 C-28.03359785 92.13529304 -21.0963288 58.613548 -19 25 C-15 25 -15 25 -12 26 C-12.02320313 25.39671875 -12.04640625 24.7934375 -12.0703125 24.171875 C-12.08835937 23.37265625 -12.10640625 22.5734375 -12.125 21.75 C-12.14820313 20.96109375 -12.17140625 20.1721875 -12.1953125 19.359375 C-11.9828378 16.79268059 -11.28654105 15.2083933 -10 13 C-6.62537285 13.54723683 -4.91765 14.0549 -2 16 C-0.84689347 11.6758505 -0.95753382 7.54419598 -1.0625 3.109375 C-1 1 -1 1 0 0 Z " fill="#FFFEFE" transform="translate(198,35)"/>
</svg>
